<svg id="Capa_1" enable-background="new 0 0 512 512" height="512" viewBox="0 0 512 512" width="512" xmlns="http://www.w3.org/2000/svg"><path d="m322.452 379.385h-132.904l-5.382 58.438h143.668z" fill="#4e5660"/><path d="m351.315 477.29h-190.63c-8.302 0-14.272-7.981-11.928-15.945l1.733-5.889c3.077-10.455 12.673-17.633 23.571-17.633h163.877c10.898 0 20.494 7.178 23.571 17.633l1.733 5.889c2.346 7.965-3.625 15.945-11.927 15.945z" fill="#c6c6c6"/><path d="m236.957 437.823h-62.896c-10.898 0-20.494 7.178-23.571 17.633l-1.733 5.889c-2.344 7.965 3.626 15.945 11.928 15.945h84.9c-8.134-10.928-10.601-20.795-8.628-39.467z" fill="#9aa3b1"/><path d="m445.222 379.385h-378.444c-32.738 0-59.278-26.54-59.278-59.278v-226.12c0-32.738 26.54-59.278 59.278-59.278h378.444c32.738 0 59.278 26.54 59.278 59.278v226.12c0 32.738-26.54 59.278-59.278 59.278z" fill="#4e5660"/><path d="m66.778 34.71c-32.738 0-59.278 26.539-59.278 59.277v226.12c0 32.738 26.54 59.278 59.278 59.278h122.77c-62.191-46.07-75.947-197.444-55.451-344.676h-67.319z" fill="#383c43"/><path d="m48.045 312.632v-211.169c0-14.475 11.734-26.209 26.209-26.209h363.493c14.475 0 26.209 11.734 26.209 26.209v211.169c0 14.475-11.734 26.209-26.209 26.209h-363.493c-14.475 0-26.209-11.734-26.209-26.209z" fill="#f7ef87"/><path d="m129.335 75.254h-55.081c-14.475 0-26.209 11.734-26.209 26.209v211.169c0 14.475 11.734 26.209 26.209 26.209h83.099c-30.244-59.511-37.935-160.086-28.018-263.587z" fill="#efd176"/><path d="m437.746 75.254h-181.746v263.587h181.746c14.475 0 26.209-11.734 26.209-26.209v-211.169c.001-14.475-11.734-26.209-26.209-26.209z" fill="#383c43"/><path d="m7.5 303.52v16.587c0 32.738 26.54 59.278 59.278 59.278h378.444c32.738 0 59.278-26.54 59.278-59.278v-16.587z" fill="#c6c6c6"/><g fill="#fff"><path d="m331.135 182.564c-1.919 0-3.839-.732-5.303-2.196l-27.062-27.062c-2.929-2.93-2.929-7.678 0-10.607l27.062-27.062c2.929-2.928 7.678-2.928 10.606 0 2.929 2.93 2.929 7.678 0 10.607l-21.758 21.758 21.758 21.758c2.929 2.93 2.929 7.678 0 10.607-1.464 1.465-3.384 2.197-5.303 2.197z"/><path d="m388.821 182.564c-1.919 0-3.839-.732-5.303-2.196-2.929-2.93-2.929-7.678 0-10.607l21.758-21.758-21.758-21.758c-2.929-2.93-2.929-7.678 0-10.607 2.929-2.928 7.678-2.928 10.606 0l27.061 27.062c2.929 2.93 2.929 7.678 0 10.607l-27.061 27.062c-1.464 1.463-3.384 2.195-5.303 2.195z"/><path d="m344.778 197.263c-.852 0-1.718-.146-2.564-.454-3.893-1.417-5.899-5.721-4.483-9.613l30.398-83.517c1.416-3.893 5.718-5.896 9.613-4.482 3.892 1.417 5.899 5.721 4.482 9.613l-30.398 83.517c-1.108 3.044-3.985 4.936-7.048 4.936z"/></g><path d="m399.864 276.762h-45.338c-4.142 0-7.5-3.357-7.5-7.5s3.358-7.5 7.5-7.5h45.338c4.142 0 7.5 3.357 7.5 7.5 0 4.142-3.358 7.5-7.5 7.5z" fill="#8ee2cf"/><path d="m332.362 276.762h-20.796c-4.142 0-7.5-3.357-7.5-7.5s3.358-7.5 7.5-7.5h20.796c4.142 0 7.5 3.357 7.5 7.5 0 4.142-3.358 7.5-7.5 7.5z" fill="#e8899e"/><path d="m408.39 254.29h-25.937c-4.142 0-7.5-3.357-7.5-7.5 0-4.142 3.358-7.5 7.5-7.5h25.937c4.142 0 7.5 3.358 7.5 7.5 0 4.143-3.358 7.5-7.5 7.5z" fill="#e8899e"/><path d="m360.289 254.29h-48.723c-4.142 0-7.5-3.357-7.5-7.5 0-4.142 3.358-7.5 7.5-7.5h48.723c4.142 0 7.5 3.358 7.5 7.5 0 4.143-3.358 7.5-7.5 7.5z" fill="#fff"/><path d="m383.701 231.818h-27.618c-4.142 0-7.5-3.357-7.5-7.5s3.358-7.5 7.5-7.5h27.618c4.142 0 7.5 3.357 7.5 7.5s-3.358 7.5-7.5 7.5z" fill="#8ee2cf"/><path d="m333.919 231.818h-22.353c-4.142 0-7.5-3.357-7.5-7.5s3.358-7.5 7.5-7.5h22.353c4.142 0 7.5 3.357 7.5 7.5s-3.358 7.5-7.5 7.5z" fill="#a3defe"/><path d="m215.345 221.813c0 1.756-.869 3.512-2.607 4.516l-51.033 29.464c-5.992 3.459-13.374 3.459-19.365 0l-51.033-29.464c-1.738-1.003-2.607-2.759-2.607-4.515v-70.122h126.645z" fill="#8eafe2"/><path d="m88.7 151.691v70.122c0 1.756.869 3.512 2.607 4.515l40.17 23.192c-4.483-30.037-6.482-63.178-6.2-97.83h-36.577z" fill="#6a96d7"/><path d="m152.022 258.387c3.344 0 6.687-.865 9.683-2.595l51.033-29.464c1.738-1.004 2.607-2.76 2.607-4.516v-70.122h-63.323z" fill="#7acefa"/><path d="m91.307 147.175 51.033-29.464c5.992-3.459 13.374-3.459 19.365 0l51.033 29.464c3.476 2.007 3.476 7.025 0 9.032l-51.033 29.464c-5.992 3.459-13.374 3.459-19.365 0l-51.033-29.464c-3.476-2.007-3.476-7.025 0-9.032z" fill="#a3defe"/><path d="m125.844 127.235-34.537 19.94c-3.476 2.007-3.476 7.025 0 9.032l34.155 19.719c-.377-15.872-.243-32.156.382-48.691z" fill="#7acefa"/><path d="m7.5 320.107c0 32.738 26.54 59.278 59.278 59.278h122.77c-20.479-15.171-35.704-41.764-46.186-75.865h-135.862z" fill="#9aa3b1"/><path d="m270.388 341.453c0-7.947-6.442-14.388-14.388-14.388s-14.388 6.442-14.388 14.388 6.442 14.388 14.388 14.388 14.388-6.442 14.388-14.388zm174.834-314.243h-10.723c-4.142 0-7.5 3.357-7.5 7.5s3.358 7.5 7.5 7.5h10.723c28.55 0 51.778 23.228 51.778 51.777v202.033h-25.544v-194.557c0-18.587-15.122-33.709-33.709-33.709h-363.494c-18.587 0-33.709 15.122-33.709 33.709v194.557h-25.544v-202.033c0-28.55 23.228-51.777 51.778-51.777h332.378c4.142 0 7.5-3.357 7.5-7.5s-3.358-7.5-7.5-7.5h-332.378c-36.822 0-66.778 29.956-66.778 66.777v226.12c0 32.467 23.172 60.123 55.099 65.759.441.078.879.115 1.313.115 3.57 0 6.735-2.56 7.377-6.197.72-4.079-2.003-7.97-6.082-8.69-24.746-4.367-42.707-25.811-42.707-50.987v-9.088h33.025c.007 0 .013.001.019.001.007 0 .013-.001.019-.001h415.872c.007 0 .013.001.019.001.007 0 .013-.001.019-.001h33.027v9.088c0 28.55-23.228 51.777-51.778 51.777h-353.606c-4.142 0-7.5 3.357-7.5 7.5s3.358 7.5 7.5 7.5h89.71l-4.001 43.438h-3.264c-14.125 0-26.777 9.464-30.767 23.016l-1.733 5.889c-1.792 6.086-.639 12.489 3.161 17.569s9.618 7.993 15.962 7.993h190.631c6.344 0 12.162-2.913 15.962-7.993s4.952-11.483 3.161-17.568l-1.733-5.891c-3.989-13.551-16.641-23.015-30.767-23.015h-3.264l-4.001-43.438h114.548c36.821 0 66.778-29.956 66.778-66.777v-226.12c.001-36.821-29.956-66.777-66.777-66.777zm-196.722 268.81h-192.956v-194.557c0-10.316 8.393-18.709 18.709-18.709h174.247zm207.956 0h-192.956v-213.266h174.247c10.316 0 18.709 8.393 18.709 18.709zm-260.067 90.865h119.222l4.001 43.438h-127.224zm141.55 58.438c7.52 0 14.254 5.038 16.377 12.25l1.733 5.891c.607 2.061-.229 3.608-.782 4.348-.553.739-1.801 1.979-3.951 1.979h-190.631c-2.15 0-3.398-1.239-3.951-1.979-.553-.738-1.389-2.286-.782-4.349l1.733-5.889c2.124-7.213 8.858-12.251 16.377-12.251zm-250.382-212.5 51.032 29.464c3.953 2.283 8.361 3.462 12.792 3.567.212.018.425.032.641.032.217 0 .43-.014.642-.033 4.429-.105 8.839-1.286 12.79-3.567l51.031-29.463c3.982-2.297 6.359-6.414 6.359-11.012v-70.121c0-.304-.023-.602-.059-.897-.29-4.229-2.581-7.967-6.299-10.114l-51.033-29.464c-8.285-4.783-18.579-4.783-26.865 0l-51.031 29.465c-3.719 2.147-6.011 5.888-6.3 10.12-.035.291-.057.586-.057.887v.003.001 70.123c0 4.597 2.377 8.713 6.357 11.009zm120.288-12.331-48.323 27.899v-53.714c2.049-.593 4.045-1.422 5.933-2.512l42.39-24.473zm-61.756-96.286c3.66-2.113 8.206-2.112 11.866 0l47.605 27.484-47.605 27.484c-3.659 2.112-8.206 2.113-11.865 0l-47.605-27.484zm-49.889 43.486 42.39 24.473c1.888 1.09 3.884 1.92 5.933 2.513v53.714l-48.323-27.9z"/></svg>