<?xml version="1.0" encoding="iso-8859-1"?>
<!-- Generator: Adobe Illustrator 21.0.0, SVG Export Plug-In . SVG Version: 6.00 Build 0)  -->
<svg version="1.1" id="Capa_1" xmlns="http://www.w3.org/2000/svg" xmlns:xlink="http://www.w3.org/1999/xlink" x="0px" y="0px"
	 viewBox="0 0 602.672 602.672" style="enable-background:new 0 0 602.672 602.672;" xml:space="preserve">
<g>
	<g>
		<g>
			<g id="filled_outline_15_">
				<rect x="140.623" y="10.045" style="fill:#5EB3D1;" width="381.692" height="522.315"/>
				<polygon style="fill:#4FA1B7;" points="391.737,80.356 371.647,80.356 371.647,532.36 482.137,532.36 482.137,170.757 				"/>
				<polygon style="fill:#87CED9;" points="462.048,592.627 80.356,592.627 80.356,70.312 361.603,70.312 462.048,170.757 				"/>
				<polygon style="fill:#B9E6ED;" points="462.048,170.757 361.603,170.757 361.603,70.312 				"/>
				<path d="M70.312,70.312v522.315c0,5.545,4.5,10.045,10.045,10.045h381.692c5.545,0,10.045-4.5,10.045-10.045v-421.87
					c0-0.221-0.111-0.412-0.131-0.633c-0.05-0.884-0.221-1.748-0.512-2.581c-0.111-0.321-0.191-0.633-0.331-0.944
					c-0.492-1.095-1.165-2.089-2.009-2.943L368.664,63.21c-0.854-0.844-1.858-1.527-2.953-2.009
					c-0.301-0.131-0.613-0.241-0.924-0.331c-0.844-0.291-1.718-0.462-2.602-0.522c-0.171,0.03-0.372-0.08-0.583-0.08H80.356
					C74.812,60.267,70.312,64.767,70.312,70.312z M437.801,160.712h-66.153V94.559L437.801,160.712z M90.401,80.356h261.158v90.401
					c0,5.545,4.5,10.045,10.045,10.045h90.401v401.781H90.401V80.356z"/>
				<path d="M492.182,522.315v20.089h30.134c5.545,0,10.044-4.5,10.044-10.045V10.045C532.36,4.5,527.86,0,522.315,0H140.623
					c-5.545,0-10.045,4.5-10.045,10.045v30.134h20.089V20.089h361.603v502.226H492.182z"/>
				<rect x="150.668" y="200.891" width="241.069" height="20.089"/>
				<rect x="150.668" y="140.623" width="80.356" height="20.089"/>
				<rect x="150.668" y="261.158" width="160.712" height="20.089"/>
				<rect x="331.469" y="261.158" width="60.267" height="20.089"/>
				<rect x="150.668" y="321.425" width="241.069" height="20.089"/>
				<rect x="150.668" y="441.959" width="241.069" height="20.089"/>
				<rect x="241.069" y="381.692" width="150.668" height="20.089"/>
				<rect x="150.668" y="381.692" width="70.312" height="20.089"/>
				<rect x="150.668" y="502.226" width="40.178" height="20.089"/>
				<rect x="210.935" y="502.226" width="180.801" height="20.089"/>
			</g>
		</g>
	</g>
</g>
<g>
</g>
<g>
</g>
<g>
</g>
<g>
</g>
<g>
</g>
<g>
</g>
<g>
</g>
<g>
</g>
<g>
</g>
<g>
</g>
<g>
</g>
<g>
</g>
<g>
</g>
<g>
</g>
<g>
</g>
</svg>
