<svg id="reg" enable-background="new 0 0 24 24" height="512" viewBox="0 0 24 24" width="512" xmlns="http://www.w3.org/2000/svg"><path d="m23.05 16.969c-.271 1.569-1.51 2.79-3.085 3.019-4.702.684-11.206.685-15.929-.001-1.576-.229-2.815-1.45-3.086-3.019-.598-3.459-.598-6.476 0-9.936.271-1.569 1.51-2.79 3.086-3.019 4.715-.685 11.209-.686 15.928 0 1.576.229 2.815 1.45 3.086 3.019.232 1.344.45 3.101.45 4.968s-.218 3.625-.45 4.969z" fill="#c1272d"/><path d="m9.5 15.5v-7l6 3.505z" fill="#fff"/><path d="m9.939 7.856c-.497-.297-1.134.062-1.134.644v7c0 .585.638.939 1.134.645l5.869-3.495c.488-.291.487-.997.001-1.289zm.366 6.325v-4.36l3.655 2.183z"/><path d="m19.904 3.271c-4.653-.691-11.153-.691-15.808 0-1.862.276-3.329 1.738-3.649 3.636-.596 3.523-.596 6.664 0 10.186.32 1.899 1.787 3.36 3.649 3.636 2.332.346 5.124.519 7.915.519 2.786 0 5.571-.172 7.894-.518 1.86-.276 3.326-1.737 3.648-3.636.596-3.523.596-6.665 0-10.188-.32-1.897-1.787-3.359-3.649-3.635zm2.17 13.573c-.213 1.256-1.173 2.222-2.39 2.402-4.518.671-10.838.671-15.368-.001-1.218-.181-2.179-1.146-2.391-2.402-.574-3.394-.574-6.291 0-9.687.213-1.256 1.173-2.22 2.392-2.402 2.262-.335 4.973-.503 7.682-.503 2.711 0 5.422.168 7.684.503 1.218.181 2.179 1.146 2.391 2.402.574 3.396.574 6.293 0 9.688z"/></svg>